<svg xmlns="http://www.w3.org/2000/svg" xmlns:xlink="http://www.w3.org/1999/xlink" width="204" height="33.609" viewBox="0 0 204 33.609">
  <defs>
    <clipPath id="clip-path">
      <rect id="Rectángulo_379" data-name="Rectángulo 379" width="204" height="33.609" fill="#fff"/>
    </clipPath>
  </defs>
  <g id="Grupo_461" data-name="Grupo 461" transform="translate(0 0)">
    <path id="Trazado_328" data-name="Trazado 328" d="M0,0V33.194H3.249V26.986l7.417-6.458L20.749,33.194h3.666L12.833,18.361,24.248,8.321H20.082L3.458,22.569H3.249V0Z" fill="#fff"/>
    <rect id="Rectángulo_376" data-name="Rectángulo 376" width="3.249" height="24.873" transform="translate(30.576 8.321)" fill="#fff"/>
    <g id="Grupo_462" data-name="Grupo 462" transform="translate(0 0)">
      <g id="Grupo_461-2" data-name="Grupo 461" clip-path="url(#clip-path)">
        <path id="Trazado_329" data-name="Trazado 329" d="M45.287,33.755V8.882h3.25v.333a52.94,52.94,0,0,1-.542,8.582H48.2c1.415-5.875,5.332-9.333,11.873-9.333h.083c7.042,0,11.749,4.083,11.749,11.333V33.755H68.66V20.464c0-5.834-4-9.249-9.708-9.249h-.083c-6.917,0-10.332,4.833-10.332,12.623v9.916Z" transform="translate(-3.004 -0.562)" fill="#fff"/>
        <path id="Trazado_330" data-name="Trazado 330" d="M105.365,25.338h3.126l-.209.709c-1.374,5.124-6.124,8.124-13.082,8.124h-.084c-9.124,0-14.582-4.916-14.582-12.956v-.25c0-7.791,5.291-12.5,14-12.5h.083c8.457,0,13.541,4.625,13.79,12.416l.042,1.375H83.7c.417,5.957,4.5,9.29,11.416,9.29H95.2c5.249,0,8.916-2.165,9.957-5.582ZM94.491,10.923c-6.457,0-10.416,3.374-10.791,9.208h21.54c-.416-5.75-4.25-9.208-10.665-9.208Z" transform="translate(-5.343 -0.562)" fill="#fff"/>
        <path id="Trazado_331" data-name="Trazado 331" d="M115.335,10.9V8.321h5.333V0h3.249V8.321h10.749V10.9H123.917V24.194c0,4.374,2.084,6.583,6.291,6.583a17.183,17.183,0,0,0,4.458-.668v2.709a20.383,20.383,0,0,1-5.333.75c-5.666,0-8.665-2.833-8.665-9V10.9Z" transform="translate(-7.651 0)" fill="#fff"/>
        <rect id="Rectángulo_377" data-name="Rectángulo 377" width="3.25" height="24.873" transform="translate(133.511 8.32)" fill="#fff"/>
        <path id="Trazado_332" data-name="Trazado 332" d="M168.482,34.17c-8.916,0-14.375-4.708-14.375-12.79v-.25c0-8.041,5.458-12.666,14.541-12.666h.084c7.958,0,12.54,2.917,13.915,8.25l.208.833h-3.166l-.25-.791c-1.084-3.708-4.583-5.708-10.625-5.708h-.082c-7.083,0-11.375,3.708-11.375,10.083v.25c0,6.458,4.292,10.166,11.249,10.166h.084c6.042,0,9.707-2,10.79-5.875l.209-.75h3.166l-.208.792c-1.458,5.457-6.084,8.457-14.082,8.457Z" transform="translate(-10.223 -0.562)" fill="#fff"/>
        <path id="Trazado_333" data-name="Trazado 333" d="M204.182,8.465c7.749,0,12.416,3.249,12.416,8.749v16.54h-3.208V33.38a65.566,65.566,0,0,1,.584-9.167h-.209c-1.332,5.417-6,9.957-14,9.957h-.083c-6.084,0-9.791-2.709-9.791-6.791v-.125c0-3.917,3.042-6.083,9.583-6.75l6.332-.624c5.708-.625,7.583-1.25,7.583-3.084v-.166c0-3.5-3.417-5.707-9.166-5.707h-.084c-5.374,0-8.624,1.833-9.541,5.457l-.207.834h-3.084l.208-.875c1.126-5.041,5.375-7.874,12.583-7.874Zm-3.666,23.081c8.291,0,12.749-5.333,12.874-11.79-1.208,1.124-3.624,1.666-7.749,2.125l-5.582.625c-4.792.542-6.875,1.958-6.875,4.5v.124c0,2.667,2.709,4.416,7.249,4.416Z" transform="translate(-12.597 -0.562)" fill="#fff"/>
        <rect id="Rectángulo_378" data-name="Rectángulo 378" width="10.588" height="2.583" transform="matrix(0.971, -0.238, 0.238, 0.971, 83.72, 2.52)" fill="#fff"/>
      </g>
    </g>
  </g>
</svg>
