<svg id="Grupo_460" data-name="Grupo 460" xmlns="http://www.w3.org/2000/svg" xmlns:xlink="http://www.w3.org/1999/xlink" width="218.495" height="165.13" viewBox="0 0 218.495 165.13">
  <defs>
    <style>
      .cls-1 {
        fill: #fff;
      }

      .cls-2 {
        clip-path: url(#clip-path);
      }
    </style>
    <clipPath id="clip-path">
      <rect id="Rectángulo_371" data-name="Rectángulo 371" class="cls-1" width="218.495" height="165.13"/>
    </clipPath>
  </defs>
  <path id="Trazado_294" data-name="Trazado 294" class="cls-1" d="M18.45,162.876V153.2h5.762v1.073H19.583v3.387h4.159v1.074H19.583v4.146Z"/>
  <path id="Trazado_295" data-name="Trazado 295" class="cls-1" d="M25.647,153.2h1.206v1.217H25.647Zm.048,2.459H26.8v7.221H25.695Z"/>
  <g id="Grupo_456" data-name="Grupo 456">
    <g id="Grupo_455" data-name="Grupo 455" class="cls-2">
      <path id="Trazado_296" data-name="Trazado 296" class="cls-1" d="M31.373,162.96c-1.9,0-2.93-.868-3.11-2.3l-.024-.23H29.36l.024.193c.133.832.832,1.375,2.013,1.375h.036c1.169,0,1.869-.422,1.869-1.146v-.036c0-.615-.519-.892-1.532-1.037l-1.253-.168c-1.133-.157-2.158-.591-2.158-1.893v-.06c0-1.326,1.133-2.1,2.93-2.1h.036c1.747,0,2.7.771,2.893,2.085l.036.205H33.133l-.024-.133c-.121-.771-.772-1.193-1.833-1.193H31.24c-1.073,0-1.76.41-1.76,1.1v.024c0,.747.687,1.012,1.531,1.133l1.254.181c1.314.181,2.158.627,2.158,1.808v.072c0,1.351-1.121,2.122-3.014,2.122Z"/>
      <path id="Trazado_297" data-name="Trazado 297" class="cls-1" d="M35.8,153.2H37v1.217H35.8Zm.048,2.459h1.109v7.221H35.845Z"/>
      <path id="Trazado_298" data-name="Trazado 298" class="cls-1" d="M41.643,162.96c-2,0-3.195-1.375-3.195-3.7v-.12c0-2.243,1.194-3.58,3.195-3.58h.024c2,0,3.194,1.337,3.194,3.58v.12c0,2.326-1.193,3.7-3.194,3.7Zm.024-1.025c1.29,0,2.061-.988,2.061-2.676v-.108c0-1.6-.771-2.556-2.061-2.556h-.024c-1.3,0-2.061.952-2.061,2.556v.108c0,1.688.759,2.676,2.061,2.676Z"/>
      <path id="Trazado_299" data-name="Trazado 299" class="cls-1" d="M45.717,156.655v-1h1.061v-1.881h1.1v1.881h1.9v1h-1.9v4.039a1.072,1.072,0,0,0,1.181,1.229,3.34,3.34,0,0,0,.784-.108v1.012a3.866,3.866,0,0,1-1.061.145,1.787,1.787,0,0,1-2-2.038v-4.279Z"/>
      <path id="Trazado_300" data-name="Trazado 300" class="cls-1" d="M55.976,160.464h1.061l-.024.181a2.69,2.69,0,0,1-2.929,2.315h-.025c-2.1,0-3.242-1.362-3.242-3.677v-.108c0-2.279,1.157-3.616,3.146-3.616h.024c1.9,0,2.978,1.229,3.038,3.531l.012.494H51.9c.084,1.5.843,2.387,2.169,2.387H54.1a1.718,1.718,0,0,0,1.857-1.362Zm-1.989-3.9c-1.217,0-1.965.819-2.085,2.218h4.014v-.012c-.06-1.423-.723-2.206-1.917-2.206Z"/>
      <path id="Trazado_301" data-name="Trazado 301" class="cls-1" d="M58.5,162.876v-7.221h1.1v.061a9.639,9.639,0,0,1-.2,2.013h.072c.326-1.627,1.085-2.17,2.11-2.17a2.535,2.535,0,0,1,.663.085v1.181a4.153,4.153,0,0,0-.675-.061c-1.29,0-1.965.748-1.965,2.689v3.423Z"/>
      <path id="Trazado_302" data-name="Trazado 302" class="cls-1" d="M66.054,155.559c1.832,0,2.857.892,2.857,2.483v4.833H67.8v-.084a14.216,14.216,0,0,1,.229-2.206h-.072a2.862,2.862,0,0,1-2.893,2.387h-.024a1.982,1.982,0,0,1-2.254-1.977v-.06c0-1.049.615-1.736,2.181-1.941l1.459-.193c.989-.145,1.374-.422,1.374-.952V157.8c0-.724-.7-1.206-1.76-1.206h-.024c-1.169,0-1.76.507-1.892,1.363l-.036.192H63.005l.024-.192c.205-1.6,1.217-2.4,3-2.4Zm-.711,6.316c1.555,0,2.423-1.061,2.459-2.676a2.66,2.66,0,0,1-1.313.41l-1.146.168c-1.049.145-1.435.5-1.435,1.049v.049c0,.65.519,1,1.423,1Z"/>
      <path id="Trazado_303" data-name="Trazado 303" class="cls-1" d="M70.575,165.045v-9.39h1.1v.072a10.3,10.3,0,0,1-.193,1.784h.061a2.454,2.454,0,0,1,2.483-1.952h.024c1.687,0,2.676,1.35,2.676,3.64v.12c0,2.291-.989,3.653-2.724,3.653h-.036a2.351,2.351,0,0,1-2.423-1.953h-.061a10.851,10.851,0,0,1,.193,2.037v1.989Zm1.1-5.629c0,1.639.771,2.483,1.965,2.483h.024c1.218,0,1.928-.964,1.928-2.592v-.1c0-1.628-.71-2.592-1.928-2.592h-.024c-1.181,0-1.965.856-1.965,2.484Z"/>
      <path id="Trazado_304" data-name="Trazado 304" class="cls-1" d="M78.17,153.2h1.206v1.217H78.17Zm.048,2.459h1.109v7.221H78.218Z"/>
      <path id="Trazado_305" data-name="Trazado 305" class="cls-1" d="M84.04,155.559c1.832,0,2.857.892,2.857,2.483v4.833H85.788v-.084a14.216,14.216,0,0,1,.229-2.206h-.072a2.862,2.862,0,0,1-2.893,2.387h-.024a1.983,1.983,0,0,1-2.255-1.977v-.06c0-1.049.616-1.736,2.182-1.941l1.459-.193c.988-.145,1.374-.422,1.374-.952V157.8c0-.724-.7-1.206-1.76-1.206H84c-1.169,0-1.76.507-1.892,1.363l-.036.192H80.991l.024-.192c.205-1.6,1.217-2.4,3-2.4Zm-.711,6.316c1.555,0,2.423-1.061,2.459-2.676a2.66,2.66,0,0,1-1.313.41l-1.146.168c-1.049.145-1.435.5-1.435,1.049v.049c0,.65.519,1,1.423,1Z"/>
      <path id="Trazado_306" data-name="Trazado 306" class="cls-1" d="M95.215,155.559c1.832,0,2.857.892,2.857,2.483v4.833H96.963v-.084a14.216,14.216,0,0,1,.229-2.206H97.12a2.862,2.862,0,0,1-2.893,2.387H94.2a1.983,1.983,0,0,1-2.255-1.977v-.06c0-1.049.616-1.736,2.182-1.941l1.459-.193c.988-.145,1.374-.422,1.374-.952V157.8c0-.724-.7-1.206-1.76-1.206h-.024c-1.169,0-1.76.507-1.892,1.363l-.036.192H92.166l.024-.192c.2-1.6,1.217-2.4,3-2.4Zm-.711,6.316c1.555,0,2.423-1.061,2.459-2.676a2.66,2.66,0,0,1-1.313.41l-1.146.168c-1.049.145-1.435.5-1.435,1.049v.049c0,.65.519,1,1.423,1Z"/>
      <path id="Trazado_307" data-name="Trazado 307" class="cls-1" d="M101.207,162.9l-2.652-7.245h1.121l2.279,6.184h.084l2.278-6.184h1.121l-2.664,7.245Z"/>
      <path id="Trazado_308" data-name="Trazado 308" class="cls-1" d="M108.994,155.559c1.832,0,2.857.892,2.857,2.483v4.833h-1.109v-.084a14.216,14.216,0,0,1,.229-2.206H110.9a2.862,2.862,0,0,1-2.893,2.387h-.024a1.983,1.983,0,0,1-2.255-1.977v-.06c0-1.049.616-1.736,2.182-1.941l1.459-.193c.988-.145,1.374-.422,1.374-.952V157.8c0-.724-.7-1.206-1.76-1.206h-.024c-1.169,0-1.76.507-1.892,1.363l-.036.192h-1.085l.024-.192c.205-1.6,1.217-2.4,3-2.4Zm-.711,6.316c1.555,0,2.423-1.061,2.459-2.676a2.66,2.66,0,0,1-1.313.41l-1.146.168c-1.049.145-1.435.5-1.435,1.049v.049c0,.65.519,1,1.423,1Z"/>
      <path id="Trazado_309" data-name="Trazado 309" class="cls-1" d="M113.526,162.876v-7.221h1.1v.061a11.5,11.5,0,0,1-.229,2.145h.072c.374-1.591,1.254-2.3,2.532-2.3h.024c1.543,0,2.495,1.025,2.495,2.748v4.569h-1.1v-4.243a1.748,1.748,0,0,0-1.82-1.953h-.012c-1.29,0-1.965.988-1.965,2.712v3.484Z"/>
      <path id="Trazado_310" data-name="Trazado 310" class="cls-1" d="M120.7,162.876v-.928l4.352-5.292v-.036H120.8v-.965h5.63v.929l-4.328,5.279v.049h4.28v.964Z"/>
      <path id="Trazado_311" data-name="Trazado 311" class="cls-1" d="M130.585,155.559c1.832,0,2.856.892,2.856,2.483v4.833h-1.108v-.084a14.216,14.216,0,0,1,.229-2.206h-.073a2.86,2.86,0,0,1-2.892,2.387h-.025a1.982,1.982,0,0,1-2.254-1.977v-.06c0-1.049.615-1.736,2.182-1.941l1.459-.193c.988-.145,1.374-.422,1.374-.952V157.8c0-.724-.7-1.206-1.76-1.206h-.024c-1.169,0-1.76.507-1.893,1.363l-.036.192h-1.085l.025-.192c.2-1.6,1.216-2.4,3-2.4Zm-.711,6.316c1.555,0,2.423-1.061,2.459-2.676a2.661,2.661,0,0,1-1.314.41l-1.145.168c-1.049.145-1.435.5-1.435,1.049v.049c0,.65.519,1,1.422,1Z"/>
      <path id="Trazado_312" data-name="Trazado 312" class="cls-1" d="M134.767,159.212c0-2.291.977-3.653,2.725-3.653h.024a2.356,2.356,0,0,1,2.435,1.977h.06a10.3,10.3,0,0,1-.193-2.061V153.2h1.1v9.68h-1.1v-.084a10.055,10.055,0,0,1,.193-1.76h-.06a2.458,2.458,0,0,1-2.484,1.941h-.024c-1.7,0-2.676-1.351-2.676-3.641Zm1.133.108c0,1.615.7,2.58,1.929,2.58h.024c1.182,0,1.965-.844,1.965-2.472V159.1c0-1.627-.772-2.483-1.965-2.483h-.024c-1.23,0-1.929.964-1.929,2.592Z"/>
      <path id="Trazado_313" data-name="Trazado 313" class="cls-1" d="M145.569,155.559c1.832,0,2.856.892,2.856,2.483v4.833h-1.108v-.084a14.216,14.216,0,0,1,.229-2.206h-.073a2.86,2.86,0,0,1-2.892,2.387h-.025a1.982,1.982,0,0,1-2.254-1.977v-.06c0-1.049.615-1.736,2.182-1.941l1.459-.193c.988-.145,1.374-.422,1.374-.952V157.8c0-.724-.7-1.206-1.76-1.206h-.024c-1.169,0-1.76.507-1.893,1.363l-.036.192h-1.085l.025-.192c.2-1.6,1.216-2.4,3-2.4Zm-.711,6.316c1.555,0,2.423-1.061,2.459-2.676a2.661,2.661,0,0,1-1.314.41l-1.145.168c-1.049.145-1.435.5-1.435,1.049v.049c0,.65.519,1,1.422,1Z"/>
      <path id="Trazado_314" data-name="Trazado 314" class="cls-1" d="M157.165,155.655h1.085l-3,7.691c-.41,1.06-1.049,1.784-2.086,1.784a2.629,2.629,0,0,1-.844-.145v-.868a2.82,2.82,0,0,0,.675.085c.724,0,1.085-.483,1.351-1.121l.18-.483-2.724-6.943h1.109l2.085,5.425h.085Z"/>
      <path id="Trazado_315" data-name="Trazado 315" class="cls-1" d="M161.734,165.045v-9.39h1.1v.072a10.374,10.374,0,0,1-.192,1.784h.059a2.455,2.455,0,0,1,2.484-1.952h.024c1.687,0,2.676,1.35,2.676,3.64v.12c0,2.291-.989,3.653-2.725,3.653h-.036a2.353,2.353,0,0,1-2.423-1.953h-.059a10.927,10.927,0,0,1,.192,2.037v1.989Zm1.1-5.629c0,1.639.771,2.483,1.965,2.483h.024c1.217,0,1.929-.964,1.929-2.592v-.1c0-1.628-.712-2.592-1.929-2.592H164.8c-1.182,0-1.965.856-1.965,2.484Z"/>
      <path id="Trazado_316" data-name="Trazado 316" class="cls-1" d="M169.329,153.2h1.205v1.217h-1.205Zm.048,2.459h1.109v7.221h-1.109Z"/>
      <rect id="Rectángulo_367" data-name="Rectángulo 367" class="cls-1" width="1.097" height="9.68" transform="translate(172.319 153.196)"/>
      <path id="Trazado_317" data-name="Trazado 317" class="cls-1" d="M178.068,155.559c1.832,0,2.856.892,2.856,2.483v4.833h-1.108v-.084a14.216,14.216,0,0,1,.229-2.206h-.073a2.86,2.86,0,0,1-2.892,2.387h-.025a1.982,1.982,0,0,1-2.254-1.977v-.06c0-1.049.615-1.736,2.182-1.941l1.459-.193c.988-.145,1.374-.422,1.374-.952V157.8c0-.724-.7-1.206-1.76-1.206h-.024c-1.169,0-1.76.507-1.893,1.363l-.036.192h-1.085l.025-.192c.2-1.6,1.216-2.4,3-2.4Zm-.711,6.316c1.555,0,2.423-1.061,2.459-2.676a2.661,2.661,0,0,1-1.314.41l-1.145.168c-1.049.145-1.435.5-1.435,1.049v.049c0,.65.518,1,1.422,1Z"/>
      <path id="Trazado_318" data-name="Trazado 318" class="cls-1" d="M182.01,156.655v-1h1.061v-1.881h1.1v1.881h1.9v1h-1.9v4.039a1.072,1.072,0,0,0,1.181,1.229,3.333,3.333,0,0,0,.784-.108v1.012a3.858,3.858,0,0,1-1.06.145,1.787,1.787,0,0,1-2-2.038v-4.279Z"/>
      <path id="Trazado_319" data-name="Trazado 319" class="cls-1" d="M192.268,160.464h1.061l-.024.181a2.69,2.69,0,0,1-2.929,2.315h-.024c-2.1,0-3.243-1.362-3.243-3.677v-.108c0-2.279,1.157-3.616,3.147-3.616h.024c1.9,0,2.977,1.229,3.037,3.531l.012.494h-5.135c.084,1.5.844,2.387,2.17,2.387h.024a1.718,1.718,0,0,0,1.857-1.362Zm-1.988-3.9c-1.218,0-1.965.819-2.086,2.218h4.015v-.012c-.061-1.423-.724-2.206-1.917-2.206Z"/>
      <path id="Trazado_320" data-name="Trazado 320" class="cls-1" d="M197.513,162.96c-1.9,0-2.93-.868-3.11-2.3l-.025-.23H195.5l.025.193c.133.832.832,1.375,2.012,1.375h.037c1.169,0,1.869-.422,1.869-1.146v-.036c0-.615-.519-.892-1.532-1.037l-1.253-.168c-1.133-.157-2.158-.591-2.158-1.893v-.06c0-1.326,1.133-2.1,2.929-2.1h.036c1.748,0,2.7.771,2.894,2.085l.036.205h-1.121l-.025-.133c-.12-.771-.771-1.193-1.832-1.193h-.036c-1.073,0-1.76.41-1.76,1.1v.024c0,.747.687,1.012,1.531,1.133l1.254.181c1.314.181,2.158.627,2.158,1.808v.072c0,1.351-1.121,2.122-3.014,2.122Z"/>
      <path id="Trazado_321" data-name="Trazado 321" class="cls-1" d="M128.035,81.872c-2.084-1.359-4.282-2.792-6.565-4.3-.765-1.027-1.553-2.119-2.411-3.343-2.959-4.224-5.6-8.355-7.863-12.288,5.688-3.063,12.13-6.342,19.162-9.75,13.792-6.679,20.029-16.826,17.112-27.839C143.68,10.043,125.907-1.082,108.635.085,92.95,1.135,80.858,9.331,77.077,21.474c-3.853,12.371,1.616,25.92,14.629,36.243.728.576,4.6,3.622,10.47,7.873C81.7,77.656,70.987,87.313,70.357,94.293a9.777,9.777,0,0,0,1.818,6.6c1.893,2.428,4.818,2.811,7.776,2.237,8.878-1.721,17.911-21.45,24.3-36.04,4.982,3.559,9.784,6.818,14.277,9.682l1.419.9c1.237,1.78,2.486,3.9,3.86,5.893,6.427,9.322,12.727,17.335,20.653,17.5,2.806.057,3.715-1.992,3.184-3.4-1.162-3.08-7.759-8.069-19.608-15.79m16.9,15.994c-2.126.619-10.227-3.1-21.908-18.231l.018.012h0c7.441,4.434,22.7,14.846,22.474,17.533a.725.725,0,0,1-.583.687m-70.134-.241a5.817,5.817,0,0,1-1.758-5.118c.9-6.364,11.059-15.161,30.191-26.145l.288.206C96.775,81.845,86.686,97.779,79.26,99.113a4.744,4.744,0,0,1-4.454-1.488m27.6-72.511a5.567,5.567,0,0,1,4.829-2.92h.092a4.774,4.774,0,0,1,4.12,2.027c3.175,4.455,1.826,16.206-3.6,31.507l0-.006,0,.009c-6.8-13.568-8.835-24.983-5.433-30.617m3.353,38.395c.774-1.892,1.514-3.8,2.21-5.7l.012.023v-.005c.552,1.092,1.138,2.218,1.788,3.421l0,0v0c-1.342.743-2.678,1.5-4,2.255l0-.007Zm4.793-2.69c-.785-1.393-1.523-2.76-2.195-4.067,5.881-16.441,7.449-29.27,4.187-34.328a5.175,5.175,0,0,0-4.107-2.479c-3.3-.267-5.745.75-7.282,3.021-3.784,5.587-1.425,18.228,6.306,33.827-.884,2.437-1.949,4.976-3,7.454l-1.159.675c-3.8-2.839-7.41-5.685-10.716-8.462C80.494,46.3,75.869,34.632,79.571,23.6c3.807-11.353,16.38-20.1,29.892-20.787,15.312-.787,31.713,9.734,35.079,22.507,1.572,5.964,1.47,17.341-16.867,26.527-6.209,3.111-11.964,6.128-17.121,8.97M105,65.36c1.689-.958,3.463-1.938,5.4-2.983h0l0,0c2.4,4.343,5.148,8.8,8.171,13.263-5.275-3.528-9.711-6.627-13.832-9.663.088-.2.176-.409.262-.616"/>
      <path id="Trazado_322" data-name="Trazado 322" class="cls-1" d="M0,141.644V106.092H3.481v24.173H3.7L21.509,115h4.463L13.744,125.758,26.15,141.644H22.223l-10.8-13.565L3.481,135v6.649Z"/>
      <rect id="Rectángulo_368" data-name="Rectángulo 368" class="cls-1" width="3.481" height="26.64" transform="translate(32.749 115.004)"/>
      <path id="Trazado_323" data-name="Trazado 323" class="cls-1" d="M45.287,141.644V115h3.481v.357a56.7,56.7,0,0,1-.581,9.192h.224c1.516-6.292,5.711-10,12.717-10h.089c7.542,0,12.584,4.373,12.584,12.138v14.949h-3.48V127.409c0-6.248-4.285-9.906-10.4-9.906h-.089c-7.408,0-11.066,5.176-11.066,13.52v10.621Z"/>
      <path id="Trazado_324" data-name="Trazado 324" class="cls-1" d="M107.129,132.63h3.348l-.224.759c-1.472,5.488-6.559,8.7-14.011,8.7h-.09c-9.772,0-15.618-5.265-15.618-13.877v-.268c0-8.345,5.667-13.387,14.994-13.387h.089c9.058,0,14.5,4.954,14.77,13.3l.045,1.473H83.925c.447,6.38,4.82,9.95,12.227,9.95h.09c5.622,0,9.55-2.319,10.665-5.979ZM95.483,117.191c-6.916,0-11.156,3.614-11.558,9.862H107c-.446-6.159-4.552-9.862-11.423-9.862Z"/>
      <path id="Trazado_325" data-name="Trazado 325" class="cls-1" d="M115.335,117.771V115h5.712v-8.912h3.48V115H136.04v2.766H124.527v14.235c0,4.685,2.232,7.051,6.738,7.051a18.4,18.4,0,0,0,4.775-.715v2.9a21.831,21.831,0,0,1-5.712.8c-6.069,0-9.281-3.034-9.281-9.638V117.771Z"/>
      <rect id="Rectángulo_369" data-name="Rectángulo 369" class="cls-1" width="3.481" height="26.64" transform="translate(142.998 115.004)"/>
      <path id="Trazado_326" data-name="Trazado 326" class="cls-1" d="M169.5,142.09c-9.55,0-15.4-5.042-15.4-13.7v-.268c0-8.612,5.846-13.566,15.574-13.566h.09c8.523,0,13.431,3.124,14.9,8.836l.223.892h-3.391l-.268-.847c-1.161-3.971-4.909-6.114-11.38-6.114h-.088c-7.586,0-12.183,3.972-12.183,10.8v.268c0,6.917,4.6,10.888,12.048,10.888h.09c6.471,0,10.4-2.142,11.557-6.292l.224-.8H184.9l-.223.848c-1.562,5.845-6.516,9.058-15.083,9.058Z"/>
      <path id="Trazado_327" data-name="Trazado 327" class="cls-1" d="M205.2,114.558c8.3,0,13.3,3.48,13.3,9.371v17.715h-3.436v-.4a70.226,70.226,0,0,1,.625-9.818h-.224c-1.427,5.8-6.425,10.665-14.993,10.665h-.089c-6.516,0-10.487-2.9-10.487-7.273v-.134c0-4.195,3.258-6.515,10.264-7.23l6.782-.668c6.114-.669,8.122-1.339,8.122-3.3V123.3c0-3.749-3.66-6.113-9.817-6.113h-.09c-5.756,0-9.237,1.963-10.219,5.845l-.222.893h-3.3l.223-.937c1.206-5.4,5.757-8.434,13.477-8.434Zm-3.927,24.721c8.88,0,13.655-5.712,13.789-12.628-1.294,1.2-3.882,1.784-8.3,2.276l-5.979.669c-5.132.58-7.364,2.1-7.364,4.82v.133c0,2.856,2.9,4.73,7.764,4.73Z"/>
      <rect id="Rectángulo_370" data-name="Rectángulo 370" class="cls-1" width="11.34" height="2.766" transform="matrix(0.971, -0.238, 0.238, 0.971, 89.669, 108.793)"/>
    </g>
  </g>
</svg>
